<svg width="31" height="25" viewBox="0 0 31 25" fill="none" xmlns="http://www.w3.org/2000/svg">
<path fill-rule="evenodd" clip-rule="evenodd" d="M6.70293 1.44401C8.03688 0.835831 9.54088 0.710734 10.957 1.09018C11.646 1.27481 12.055 1.98308 11.8703 2.67214C11.6857 3.3612 10.9774 3.77012 10.2884 3.58548C9.45157 3.36127 8.56285 3.43519 7.7746 3.79457C6.98636 4.15395 6.34772 4.77639 5.96821 5.55515C5.5887 6.3339 5.49198 7.22043 5.69463 8.0627C5.89728 8.90497 6.38667 9.65049 7.07887 10.1714C7.45441 10.454 7.64681 10.9183 7.58125 11.3836C7.51569 11.849 7.20252 12.2421 6.76353 12.4099C5.88605 12.7455 5.07994 13.2637 4.40289 13.9408C4.17479 14.1689 3.96476 14.4116 3.77369 14.6666C3.37556 15.1982 3.40152 15.6434 3.61105 16.0422C3.85845 16.513 4.42695 17.0011 5.23108 17.2541C5.91158 17.4681 6.28969 18.1933 6.07563 18.8738C5.86157 19.5543 5.13639 19.9324 4.45589 19.7183C3.13607 19.3032 1.94934 18.4334 1.32423 17.2439C0.66124 15.9822 0.697374 14.4646 1.70606 13.1179C1.97038 12.765 2.26086 12.4294 2.57619 12.1141C3.06239 11.6279 3.59674 11.2009 4.16802 10.8377C3.70819 10.188 3.37193 9.45236 3.18297 8.66701C2.84003 7.24163 3.00371 5.74134 3.64595 4.42345C4.2882 3.10556 5.36897 2.05219 6.70293 1.44401ZM23.225 3.79457C22.4368 3.43519 21.548 3.36127 20.7113 3.58548C20.0222 3.77012 19.3139 3.3612 19.1293 2.67214C18.9447 1.98308 19.3536 1.27481 20.0426 1.09018C21.4587 0.710734 22.9627 0.835831 24.2967 1.44401C25.6306 2.05219 26.7114 3.10556 27.3537 4.42345C27.9959 5.74134 28.1596 7.24163 27.8166 8.66701C27.6277 9.45236 27.2914 10.188 26.8316 10.8377C27.4029 11.2009 27.9372 11.6279 28.4234 12.1141C28.7388 12.4294 29.0292 12.765 29.2935 13.1179C30.3022 14.4646 30.3384 15.9822 29.6754 17.2439C29.0503 18.4334 27.8635 19.3032 26.5437 19.7183C25.8632 19.9324 25.138 19.5543 24.924 18.8738C24.7099 18.1933 25.088 17.4681 25.7685 17.2541C26.5727 17.0011 27.1412 16.513 27.3886 16.0422C27.5981 15.6434 27.6241 15.1982 27.2259 14.6666C27.0349 14.4116 26.8248 14.1689 26.5967 13.9408C25.9197 13.2637 25.1136 12.7455 24.2361 12.4099C23.7971 12.2421 23.4839 11.849 23.4184 11.3836C23.3528 10.9183 23.5452 10.454 23.9207 10.1714C24.6129 9.65049 25.1023 8.90497 25.305 8.0627C25.5076 7.22043 25.4109 6.3339 25.0314 5.55515C24.6519 4.77639 24.0133 4.15395 23.225 3.79457ZM15.5 6.04167C13.4391 6.04167 11.7685 7.71231 11.7685 9.77315C11.7685 11.834 13.4392 13.5047 15.5 13.5047C17.5608 13.5047 19.2315 11.834 19.2315 9.77315C19.2315 7.71231 17.5608 6.04167 15.5 6.04167ZM19.6894 14.4983C20.9932 13.3415 21.8148 11.6532 21.8148 9.77315C21.8148 6.28557 18.9875 3.45833 15.5 3.45833C12.0124 3.45833 9.18516 6.28557 9.18516 9.77315C9.18516 11.6532 10.0068 13.3415 11.3106 14.4983C10.4287 14.9416 9.61465 15.526 8.90361 16.237C8.58827 16.5524 8.2978 16.888 8.03348 17.2409C7.44108 18.0318 7.16213 18.9132 7.21125 19.8028C7.25961 20.6787 7.61989 21.4628 8.13496 22.0959C9.14852 23.3417 10.848 24.1251 12.6296 24.1251H18.3704C20.152 24.1251 21.8515 23.3417 22.865 22.0959C23.3801 21.4628 23.7404 20.6787 23.7887 19.8028C23.8379 18.9132 23.5589 18.0318 22.9665 17.2409C22.7022 16.888 22.4117 16.5524 22.0964 16.237C21.3853 15.526 20.5713 14.9416 19.6894 14.4983ZM15.5 16.088C13.711 16.088 11.9953 16.7987 10.7303 18.0637C10.5022 18.2918 10.2922 18.5345 10.1011 18.7896C9.83817 19.1406 9.77806 19.4324 9.79065 19.6603C9.804 19.902 9.90619 20.1796 10.1389 20.4656C10.6208 21.0579 11.5578 21.5417 12.6296 21.5417H18.3704C19.4422 21.5417 20.3792 21.0579 20.8611 20.4656C21.0938 20.1796 21.196 19.902 21.2093 19.6604C21.2219 19.4324 21.1618 19.1406 20.8989 18.7896C20.7078 18.5345 20.4978 18.2918 20.2697 18.0637C19.0047 16.7987 17.289 16.088 15.5 16.088Z" fill="white"/>
</svg>
