<svg width="16" height="22" viewBox="0 0 16 22" fill="none" xmlns="http://www.w3.org/2000/svg">
<path d="M15.5 7.87452C15.5 7.12452 15.0629 6.43662 14.375 6.18702C14.8121 5.62452 14.8754 4.81242 14.5004 4.12452C14.1254 3.43662 13.3754 3.12492 12.6875 3.18702C12.7496 2.49912 12.4379 1.74912 11.75 1.37412C11.0621 0.99912 10.3121 1.06122 9.68751 1.49951C9.4379 0.812782 8.75001 0.374512 8.00001 0.374512C7.25001 0.374512 6.56211 0.811612 6.31251 1.49951C5.68791 1.06241 4.93791 1.00028 4.25001 1.37529C3.56211 1.75031 3.25041 2.50029 3.31251 3.18819C2.62461 3.12608 1.87461 3.4378 1.49961 4.12569C1.12461 4.81359 1.18671 5.56359 1.625 6.18819C1.0004 6.50109 0.5 7.12569 0.5 7.87569C0.5 8.62569 0.9371 9.31359 1.625 9.56319C1.1879 10.1257 1.1246 10.9378 1.49961 11.6257C1.87461 12.3136 2.62461 12.6253 3.31251 12.5632C3.2504 13.2511 3.56212 14.0011 4.25001 14.3761C4.25001 14.3761 4.31212 14.3761 4.31212 14.4382L2.43712 20.4382L4.81252 19.1878L6.06292 21.5632L8.00002 15.3757H8.06213H8.12424L10.0613 21.6253L11.3117 19.2499L13.6871 20.5003L11.75 14.4382C11.75 14.4382 11.8121 14.4382 11.8121 14.3761C12.5 14.0011 12.8117 13.2511 12.7496 12.5632C13.4375 12.6253 14.1875 12.3136 14.5625 11.6257C14.9375 10.9378 14.8754 10.1878 14.4372 9.56319C15.0629 9.31241 15.5001 8.62452 15.5001 7.87452L15.5 7.87452ZM8.00002 12.2503C5.56252 12.2503 3.62542 10.3132 3.62542 7.87572C3.62542 5.43822 5.56252 3.50112 8.00002 3.50112C10.4375 3.50112 12.3746 5.43822 12.3746 7.87572C12.3746 10.312 10.4375 12.2503 8.00002 12.2503Z" fill="#5D6FA3"/>
</svg>
