<?xml version="1.0" encoding="UTF-8"?><svg id="Layer_1" xmlns="http://www.w3.org/2000/svg" viewBox="0 0 500 161.29"><defs><style>.cls-1{fill:#ef4123;}.cls-2{fill:#00abe6;}</style></defs><path class="cls-2" d="M159.45,1.61c-1.15-1.05-2.55-1.61-4.05-1.61h-17.21c-1.5,0-2.9,.56-4.05,1.61-1.2,1.11-1.84,2.53-1.84,4.11V57.56h23.09c1.45,0,2.83-.57,4.01-1.66,1.23-1.13,1.88-2.6,1.88-4.23V5.72c0-1.58-.64-3-1.84-4.11Z"/><path class="cls-2" d="M159.45,105.35c-1.15-1.05-2.55-1.61-4.05-1.61h-23.09v51.67c0,1.63,.65,3.1,1.88,4.23,1.17,1.08,2.56,1.66,4.01,1.66h17.21c1.45,0,2.83-.57,4.01-1.66,1.23-1.13,1.88-2.6,1.88-4.23v-45.95c0-1.58-.64-3-1.84-4.11Z"/><path class="cls-1" d="M159.68,67.99h0c-1.11-1.2-2.53-1.84-4.1-1.84H5.89c-1.63,0-3.09,.65-4.23,1.88-1.08,1.18-1.65,2.56-1.65,4.01v17.21c0,1.45,.57,2.83,1.66,4.01,1.13,1.23,2.6,1.87,4.23,1.87h60.27v60.27c0,1.63,.65,3.1,1.88,4.23,1.17,1.09,2.56,1.66,4.01,1.66h17.21c1.45,0,2.84-.57,4.01-1.66,1.23-1.13,1.88-2.6,1.88-4.23v-60.27h60.44c1.58,0,3-.64,4.1-1.84,1.06-1.14,1.61-2.54,1.61-4.05v-17.21c0-1.5-.56-2.9-1.61-4.05Z"/><path class="cls-1" d="M95.14,57.56V5.72c0-.79-.16-1.55-.48-2.26-.31-.69-.77-1.31-1.36-1.85C92.15,.56,90.75,0,89.25,0h-17.21c-1.5,0-2.9,.56-4.05,1.61-.59,.54-1.05,1.17-1.36,1.85-.32,.7-.48,1.46-.48,2.26V57.56h28.98Z"/><g><path class="cls-2" d="M252.21,23.69h11.05c2.81,0,5.03,.77,6.44,2.18,1.09,1.09,1.65,2.43,1.65,4.08v.07c0,2.96-1.69,4.54-3.52,5.49,2.88,.99,4.89,2.64,4.89,5.98v.07c0,4.4-3.62,6.75-9.11,6.75h-11.4V23.69Zm14.81,6.97c0-1.94-1.55-3.13-4.33-3.13h-6.23v6.54h5.91c2.78,0,4.64-1.09,4.64-3.34v-.07Zm-3.69,7.07h-6.86v6.75h7.18c2.96,0,4.75-1.16,4.75-3.38v-.07c0-2.07-1.65-3.31-5.07-3.31Z"/><path class="cls-2" d="M277.62,23.69h18.26v3.87h-13.93v6.4h12.35v3.87h-12.35v6.61h14.11v3.87h-18.44V23.69Zm7.04-7.56h3.94l4.12,5.17h-3.38l-2.75-2.36-2.71,2.36h-3.31l4.08-5.17Zm-.53,35.78h4.57v4.05h-4.57v-4.05Z"/><path class="cls-2" d="M301.2,23.69h4.01l13.19,17.03V23.69h4.26v24.63h-3.62l-13.58-17.52v17.52h-4.26V23.69Z"/><path class="cls-2" d="M328.99,23.69h4.33v10.24h11.75v-10.24h4.33v24.63h-4.33v-10.38h-11.75v10.38h-4.33V23.69Z"/><path class="cls-2" d="M364.18,23.69h4.78l7.42,18.93,7.39-18.93h4.68l-10.2,24.8h-3.83l-10.24-24.8Z"/><path class="cls-2" d="M392.93,23.69h4.33v24.63h-4.33V23.69Z"/><path class="cls-2" d="M403.84,23.69h18.26v3.87h-13.93v6.4h12.35v3.87h-12.35v6.61h14.11v3.87h-18.44V23.69Zm7.04-7.56h3.94l4.12,5.17h-3.38l-2.75-2.36-2.71,2.36h-3.31l4.08-5.17Zm-.53,35.78h4.57v4.05h-4.57v-4.05Z"/><path class="cls-2" d="M427.42,23.69h4.01l13.19,17.03V23.69h4.26v24.63h-3.62l-13.58-17.52v17.52h-4.26V23.69Z"/></g><g><g><path class="cls-2" d="M291.06,106.93c0,5.03-.85,9.19-2.56,12.5-1.71,3.31-4.08,5.73-7.12,7.28-3.04,1.54-6.55,2.32-10.51,2.32s-7.47-.77-10.51-2.32c-3.04-1.54-5.42-3.97-7.12-7.28-1.71-3.31-2.56-7.48-2.56-12.5v-9.54c0-5.03,.85-9.19,2.56-12.5,1.71-3.31,4.08-5.73,7.12-7.28,3.04-1.54,6.55-2.32,10.51-2.32s7.47,.77,10.51,2.32c3.04,1.54,5.42,3.97,7.12,7.28,1.71,3.31,2.56,7.48,2.56,12.5v9.54Zm-9.92,0v-9.54c0-4.66-.84-8.07-2.51-10.25-1.67-2.18-4.26-3.27-7.76-3.27s-6.09,1.09-7.76,3.27c-1.67,2.18-2.51,5.6-2.51,10.25v9.54c0,4.63,.84,8.05,2.51,10.25,1.67,2.2,4.26,3.3,7.76,3.3s6.09-1.1,7.76-3.3c1.67-2.2,2.51-5.62,2.51-10.25Z"/><path class="cls-2" d="M340.12,125.64c0,.78-.28,1.45-.83,2.01-.55,.55-1.22,.83-2.01,.83h-7.16c-1.08,0-1.95-.15-2.59-.45-.65-.3-1.22-1-1.73-2.11l-15.7-34.48c-.18-.37-.4-.55-.66-.55-.23,0-.35,.18-.35,.55v35.62c0,.41-.13,.75-.4,1.02s-.58,.4-.95,.4h-6.02c-.35,0-.67-.14-.97-.42-.3-.28-.45-.61-.45-1v-48.38c0-.78,.28-1.45,.83-2.01,.55-.55,1.22-.83,2.01-.83h7.64c.78,0,1.4,.16,1.85,.48,.45,.32,.87,.92,1.26,1.8l16.5,36.41c.18,.37,.38,.55,.59,.55,.23,0,.35-.22,.35-.66v-37.24c0-.39,.13-.71,.38-.97,.25-.25,.58-.38,.97-.38h6.09c.39,0,.71,.13,.97,.38s.38,.58,.38,.97v48.45Z"/><path class="cls-2" d="M359.3,96.98v10.34c0,4.61,.9,7.98,2.7,10.12,1.8,2.13,3.92,3.2,6.36,3.2s4.81-.07,7.02-.21v-18.09c0-.37,.13-.7,.4-.99,.27-.29,.58-.43,.95-.43h7.02c.37,0,.69,.14,.97,.41s.42,.61,.42,1v23.79c0,.92-.44,1.5-1.31,1.73-1.18,.23-2.5,.44-3.96,.62-1.46,.18-3.3,.32-5.5,.41-2.2,.09-4.2,.14-6,.14-2.07,0-4.19-.36-6.35-1.09-2.16-.73-4.21-1.95-6.17-3.68-1.96-1.73-3.53-4.01-4.7-6.83-1.18-2.82-1.76-6.2-1.76-10.12v-10.2c0-4.31,.61-7.91,1.82-10.81,1.21-2.89,2.82-5.15,4.84-6.76,2.02-1.61,4.16-2.73,6.41-3.34,2.26-.61,4.66-.92,7.19-.92,2.1,0,4.06,.22,5.88,.66,1.82,.44,3.45,.95,4.88,1.54,1.43,.59,2.49,1.1,3.18,1.54,1.04,.6,1.56,1.24,1.56,1.94v4.74c0,1.15-.59,1.51-1.76,1.07-1.75-.71-3.78-1.4-6.07-2.06-2.29-.66-4.62-.99-6.97-.99-3.8,0-6.59,1-8.37,2.99-1.78,1.99-2.66,5.41-2.66,10.25Z"/><path class="cls-2" d="M449.8,127.06c0,.41-.14,.75-.41,1.02-.28,.27-.61,.4-1,.4h-7.02c-.35,0-.67-.14-.97-.42-.3-.28-.45-.61-.45-1v-21.68h-20.09v21.68c0,.39-.15,.73-.45,1-.3,.28-.62,.42-.97,.42h-7.02c-.35,0-.67-.14-.97-.42s-.45-.61-.45-1v-49.87c0-.37,.14-.69,.43-.95s.62-.4,.99-.4h7.02c.37,0,.7,.13,.99,.4s.43,.58,.43,.95v19.54h20.09v-19.54c0-.37,.14-.69,.43-.95,.29-.27,.62-.4,.99-.4h7.02c.42,0,.76,.12,1.02,.36,.27,.24,.4,.57,.4,.99v49.87Z"/><path class="cls-2" d="M241.42,127.06c0,.41-.14,.75-.42,1.02-.28,.27-.61,.4-1,.4h-7.02c-.35,0-.67-.14-.97-.42s-.45-.61-.45-1v-21.68h-20.09v21.68c0,.39-.15,.73-.45,1-.3,.28-.62,.42-.97,.42h-7.02c-.35,0-.67-.14-.97-.42-.3-.28-.45-.61-.45-1v-49.87c0-.37,.14-.69,.43-.95,.29-.27,.62-.4,.99-.4h7.02c.37,0,.7,.13,.99,.4,.29,.27,.43,.58,.43,.95v19.54h20.09v-19.54c0-.37,.14-.69,.43-.95,.29-.27,.62-.4,.99-.4h7.02c.41,0,.75,.12,1.02,.36s.4,.57,.4,.99v49.87Z"/><path class="cls-2" d="M499.98,127.1s-.03-.1-.05-.17l-11.62-44.4c-1.24-4.82-4.53-7.23-9.86-7.23s-8.58,2.41-9.82,7.23l-11.62,44.4c0,.09,0,.16-.02,.21-.01,.05-.03,.09-.05,.14,0,.37,.12,.66,.36,.88,.24,.22,.55,.33,.92,.33h7.5c.3,0,.58-.12,.85-.36,.27-.24,.43-.52,.5-.85l2.4-9.94h0l2.75-11.57,5.12-21.06c.12-.44,.25-.73,.4-.88,.15-.15,.39-.22,.71-.22,.35,0,.59,.07,.74,.22,.15,.15,.28,.44,.4,.88l5.12,21.06h-8.54l-1.53,8.06h11.98l3.25,13.45c.07,.32,.24,.61,.5,.85,.27,.24,.55,.36,.85,.36h7.5c.37,0,.67-.11,.92-.33,.24-.22,.36-.51,.36-.88,0-.07,0-.13-.02-.17Z"/></g><g><path class="cls-2" d="M267.03,61.89h8.18c.4,0,.78,.18,1.03,.49l7.78,9.78c.68,.86,.07,2.13-1.03,2.13h-4.89c-.31,0-.62-.11-.85-.32l-5.35-4.6c-.49-.42-1.22-.42-1.72,0l-5.27,4.59c-.24,.21-.54,.32-.86,.32h-4.73c-1.1,0-1.71-1.26-1.03-2.12l7.72-9.78c.25-.32,.63-.5,1.03-.5Z"/><path class="cls-2" d="M282.29,61.89h7.65c.4,0,.78,.18,1.03,.49l7.78,9.78c.68,.86,.07,2.13-1.03,2.13h-4.89c-.31,0-.62-.11-.85-.32l-10.15-10.89c-.46-.43-.16-1.2,.47-1.2Z"/><path class="cls-2" d="M470.45,61.89h7.65c.4,0,.78,.18,1.03,.49l7.78,9.78c.68,.86,.07,2.13-1.03,2.13h-4.89c-.31,0-.62-.11-.85-.32l-10.15-10.89c-.46-.43-.16-1.2,.47-1.2Z"/></g></g></svg>