<svg width="16" height="24" viewBox="0 0 16 24" fill="none" xmlns="http://www.w3.org/2000/svg">
<path fill-rule="evenodd" clip-rule="evenodd" d="M16 8C16 3.58172 12.4183 0 8 0C3.58172 0 0 3.58172 0 8C0 10.9612 1.60882 13.5465 4.00005 14.9298L4 24L8 20L12 24L12.0013 14.929C14.3918 13.5456 16 10.9606 16 8ZM2.66667 8C2.66667 5.05448 5.05448 2.66667 8 2.66667C10.9455 2.66667 13.3333 5.05448 13.3333 8C13.3333 10.9455 10.9455 13.3333 8 13.3333C5.05448 13.3333 2.66667 10.9455 2.66667 8Z" fill="black"/>
</svg>
